<?xml version="1.0" standalone="no"?>
<!DOCTYPE svg PUBLIC "-//W3C//DTD SVG 20010904//EN"
 "http://www.w3.org/TR/2001/REC-SVG-20010904/DTD/svg10.dtd">
<svg version="1.0" xmlns="http://www.w3.org/2000/svg"
 width="366.000000pt" height="164.000000pt" viewBox="0 0 366.000000 164.000000"
 preserveAspectRatio="xMidYMid meet">
<metadata>
Created by potrace 1.16, written by Peter Selinger 2001-2019
</metadata>
<g transform="translate(0.000000,164.000000) scale(0.100000,-0.100000)"
fill="#000000" stroke="none">
<path d="M1440 643 c-183 -11 -613 -33 -639 -33 -20 0 -31 -5 -31 -14 0 -8 -8
-17 -17 -19 -10 -3 178 -5 417 -6 239 -1 518 -3 620 -5 102 -2 160 -2 130 1
-38 3 -50 7 -40 13 12 7 9 10 -11 10 -15 0 -31 6 -37 13 -9 10 -4 13 20 15 47
4 48 12 2 12 -27 0 -35 3 -25 9 14 9 -262 12 -389 4z"/>
<path d="M1480 496 c0 -14 5 -28 11 -32 7 -4 96 -15 198 -25 102 -10 231 -23
285 -29 101 -10 144 -6 65 6 -34 6 -39 9 -24 15 18 7 17 8 -5 9 l-25 2 25 7
25 7 -28 7 c-15 4 -26 11 -23 16 6 10 -191 24 -206 15 -6 -4 -13 -2 -17 3 -3
6 -68 13 -143 16 l-138 7 0 -24z"/>
<path d="M635 445 c6 -2 111 -13 235 -25 222 -20 460 -45 533 -56 32 -5 37 -3
37 14 0 21 20 19 -365 47 -235 16 -454 27 -440 20z"/>
<path d="M1487 370 c5 -21 30 -26 101 -21 17 2 32 -1 32 -6 0 -5 55 -17 123
-27 67 -10 168 -27 225 -37 56 -11 107 -17 112 -14 6 3 10 2 10 -3 0 -4 37
-17 83 -27 45 -10 98 -29 118 -41 20 -13 40 -20 43 -17 3 4 6 2 6 -4 0 -6 8
-14 17 -17 10 -4 14 -4 10 0 -4 4 -2 12 3 19 14 17 -11 48 -33 39 -9 -3 -14
-10 -11 -15 7 -12 -7 -11 -26 1 -11 7 -11 10 -2 10 7 0 10 5 6 11 -4 8 -9 7
-16 -2 -7 -11 -11 -11 -15 -1 -2 6 -17 12 -31 13 -25 0 -25 1 -7 10 15 7 12 8
-15 4 -33 -5 -33 -5 -15 11 20 15 19 15 -3 11 -20 -5 -21 -3 -10 11 10 13 10
14 0 8 -7 -4 -18 -3 -25 2 -7 6 -25 12 -42 15 -16 3 -84 15 -150 26 -105 18
-443 61 -480 61 -8 0 -11 -7 -8 -20z"/>
</g>
</svg>
