<?xml version="1.0" standalone="no"?>
<!DOCTYPE svg PUBLIC "-//W3C//DTD SVG 20010904//EN"
 "http://www.w3.org/TR/2001/REC-SVG-20010904/DTD/svg10.dtd">
<svg version="1.0" xmlns="http://www.w3.org/2000/svg"
 width="300.000000pt" height="134.000000pt" viewBox="0 0 300.000000 134.000000"
 preserveAspectRatio="xMidYMid meet">
<metadata>
Created by potrace 1.10, written by Peter Selinger 2001-2011
</metadata>
<g transform="translate(0.000000,134.000000) scale(0.100000,-0.100000)"
fill="#000000" stroke="none">
<path d="M34 1332 c-14 -10 -25 -40 -16 -46 4 -2 6 -22 5 -43 -2 -39 -2 -1141
0 -1179 1 -11 6 -21 12 -22 8 -2 90 -10 118 -11 4 -1 7 -8 7 -16 0 -8 5 -15
10 -15 6 0 10 14 10 31 l0 30 -62 -2 c-35 -1 -64 1 -65 4 -2 4 -3 289 -3 635
l0 627 1440 0 1440 0 0 -642 c0 -474 3 -644 12 -649 7 -4 8 -3 4 4 -4 7 -2 12
5 12 8 0 8 4 -1 15 -8 10 -9 15 -1 15 8 0 10 170 10 610 -1 357 -5 610 -11
610 -5 0 -4 9 2 20 11 20 4 20 -1447 20 -802 0 -1463 -4 -1469 -8z"/>
<path d="M1476 1281 c-4 -5 -2 -12 4 -16 6 -4 7 -12 3 -18 -4 -7 -6 -22 -4
-34 1 -13 -2 -23 -7 -23 -6 0 -17 -3 -26 -6 -11 -4 -16 0 -17 12 0 18 -1 17
-9 -1 -7 -17 -9 -15 -9 12 -1 17 6 39 15 47 14 15 14 16 -5 16 -23 0 -22 2
-26 -57 l-3 -43 48 0 c54 0 60 7 60 70 0 38 -13 60 -24 41z"/>
<path d="M510 1255 c0 -11 -3 -37 -7 -59 -5 -34 -4 -38 13 -33 10 3 36 8 57
12 37 6 37 6 37 56 l0 50 -50 -3 c-42 -3 -50 -6 -50 -23z m90 6 c0 -5 -12 -14
-27 -19 -25 -9 -26 -10 -5 -11 13 -1 22 -7 22 -16 0 -17 -46 -39 -61 -29 -14
9 -10 51 7 68 17 17 64 22 64 7z"/>
<path d="M1451 1234 c0 -11 3 -14 6 -6 3 7 2 16 -1 19 -3 4 -6 -2 -5 -13z"/>
<path d="M2308 1193 c7 -3 16 -2 19 1 4 3 -2 6 -13 5 -11 0 -14 -3 -6 -6z"/>
<path d="M2158 1133 c6 -2 18 -2 25 0 6 3 1 5 -13 5 -14 0 -19 -2 -12 -5z"/>
<path d="M900 1094 c0 -21 -3 -25 -17 -19 -45 19 -113 29 -125 17 -17 -17 9
-43 37 -36 13 3 51 -1 85 -10 34 -9 78 -16 98 -15 l37 1 -40 9 c-51 12 -58 20
-46 52 9 24 8 27 -9 27 -15 0 -20 -7 -20 -26z"/>
<path d="M2066 1072 c-2 -4 4 -8 14 -8 10 0 16 4 14 8 -3 4 -9 8 -14 8 -5 0
-11 -4 -14 -8z"/>
<path d="M2130 1076 c0 -2 8 -10 18 -17 15 -13 16 -12 3 4 -13 16 -21 21 -21
13z"/>
<path d="M1740 1025 c-80 -15 -140 -32 -160 -45 -20 -13 -15 -12 50 5 90 24
283 30 363 11 84 -20 97 -20 97 -1 0 15 -38 40 -47 31 -3 -3 5 -10 18 -15 l24
-10 -23 0 c-16 -1 -26 6 -29 19 -5 19 -13 20 -117 19 -61 -1 -140 -7 -176 -14z"/>
<path d="M790 1010 c-7 -4 -19 -6 -27 -3 -7 3 -13 -1 -13 -10 0 -8 4 -17 9
-19 5 -1 11 -42 12 -90 4 -76 2 -88 -13 -92 -26 -6 -30 7 -36 110 -5 98 -22
121 -22 31 0 -40 -6 -62 -25 -90 -23 -34 -24 -37 -7 -37 22 0 117 -134 117
-166 1 -13 -2 -21 -6 -19 -3 3 -19 -24 -35 -60 -29 -64 -29 -64 -70 -65 -29 0
-44 -5 -48 -16 -5 -12 -10 -14 -20 -5 -8 7 -51 9 -127 6 -185 -9 -361 -23
-368 -30 -3 -4 44 -3 104 1 155 11 1268 8 1520 -5 307 -15 423 -35 536 -92 48
-24 97 -81 104 -122 8 -39 -9 -109 -35 -152 l-19 -30 107 3 c160 4 182 9 49
10 l-118 2 12 23 c18 32 39 129 31 141 -3 6 -5 19 -3 30 1 10 -1 16 -6 13 -5
-3 -17 9 -27 28 -10 18 -33 41 -52 51 -19 10 -34 21 -34 25 0 8 -51 32 -72 35
-9 0 -25 5 -35 9 -10 5 -25 10 -33 11 -8 2 -28 6 -45 9 -16 4 -41 8 -55 10
-14 2 -25 4 -25 5 0 7 -228 19 -392 21 -73 2 -133 5 -133 9 0 3 -24 3 -54 0
-29 -3 -66 -5 -82 -4 -16 1 -35 3 -41 3 -7 1 -13 4 -13 9 0 4 28 8 63 9 164 4
268 3 279 -3 6 -4 8 -3 5 3 -4 6 22 9 71 8 46 -1 80 3 85 9 5 8 10 6 17 -4 5
-8 10 -12 10 -8 0 4 13 3 30 -2 19 -6 32 -5 36 2 5 7 12 4 21 -7 9 -14 13 -15
13 -4 0 12 2 12 10 -1 5 -8 10 -10 10 -4 0 7 13 10 30 8 19 -2 30 1 30 9 0 9
2 9 8 0 4 -6 37 -13 74 -16 52 -3 65 -1 61 10 -3 7 1 13 8 13 11 0 59 68 59
83 0 3 -8 7 -19 10 -10 2 -24 19 -32 36 -10 21 -19 29 -29 25 -36 -14 -76 -15
-94 -1 -15 11 -18 26 -17 67 1 65 -13 57 -32 -19 -12 -45 -12 -61 -1 -90 7
-20 16 -49 19 -66 6 -26 8 -28 17 -12 5 10 8 27 5 38 -4 16 0 19 29 19 21 0
42 8 54 20 11 11 22 20 25 20 9 0 17 -70 10 -100 l-7 -31 -71 6 c-40 2 -111 7
-160 11 l-87 6 27 39 c16 21 33 39 39 39 13 0 38 -27 49 -55 17 -40 18 35 1
79 l-16 41 -77 3 c-49 2 -103 12 -145 26 l-67 24 -33 -20 c-49 -30 -127 -108
-149 -151 l-19 -37 -104 0 c-87 0 -105 3 -119 18 -23 25 -21 77 4 122 25 44
44 50 156 50 57 0 72 3 67 13 -6 9 -5 9 7 0 13 -11 15 -9 14 10 -2 20 -6 22
-61 19 -74 -3 -256 -36 -311 -56 l-41 -14 -7 35 c-7 41 -56 93 -86 93 -11 0
-22 8 -25 18 -17 53 -47 122 -53 122 -12 0 -51 -31 -51 -41 0 -5 11 -7 25 -5
18 3 25 0 25 -11 0 -13 -3 -13 -15 -3 -10 8 -15 9 -15 2 0 -6 -6 -9 -14 -6 -7
3 -17 -3 -21 -13 -6 -16 -8 -15 -16 6 -7 17 -6 28 2 35 9 8 10 6 6 -7 -4 -11
-3 -16 3 -12 12 7 14 102 2 109 -4 2 -14 1 -22 -4z m95 -171 c13 -38 54 -66
67 -46 12 17 58 -37 58 -68 0 -17 -8 -26 -30 -34 -29 -9 -33 -8 -66 29 -20 22
-54 47 -75 57 -35 15 -39 20 -34 43 6 26 43 62 59 57 5 -2 15 -19 21 -38z
m-24 -118 c32 -33 59 -66 59 -74 0 -8 30 -30 68 -49 46 -23 68 -40 70 -54 3
-19 -4 -22 -65 -27 -37 -4 -110 -7 -161 -7 l-92 0 41 81 41 80 -30 49 c-17 27
-28 51 -24 54 14 15 38 1 93 -53z m820 -24 c16 -12 15 -37 -3 -37 -5 0 -8 6
-5 13 2 6 -3 17 -12 24 -9 7 -11 12 -6 12 6 0 17 -5 26 -12z m-495 -13 c-9 -8
-17 -18 -17 -22 -11 -66 3 -122 31 -122 13 0 13 -1 0 -10 -8 -5 -41 -10 -74
-10 -53 0 -58 2 -53 20 3 11 -4 29 -17 44 -22 25 -90 58 -100 48 -3 -3 -6 1
-6 9 0 8 18 22 41 31 l40 17 15 -34 c8 -19 14 -38 14 -42 0 -5 9 -15 19 -23
11 -7 18 -17 15 -22 -3 -4 0 -9 5 -9 15 -2 23 -4 44 -14 33 -14 28 2 -9 30
-34 26 -72 91 -60 103 7 6 71 19 104 21 21 1 22 0 8 -15z m458 -12 c8 -16 18
-52 22 -80 l6 -51 -102 -3 c-56 -2 -104 0 -106 4 -3 5 153 158 162 158 2 0 10
-13 18 -28z m158 -44 c21 -24 22 -41 8 -69 -8 -15 -22 -19 -60 -19 l-50 0 0
55 c0 40 4 56 17 64 21 11 60 -2 85 -31z m68 30 c26 3 40 0 40 -8 0 -7 -8 -9
-19 -5 -13 4 -24 -1 -34 -15 l-15 -22 -7 21 c-3 12 -11 19 -16 16 -5 -4 -6 2
-2 11 4 10 8 14 10 8 2 -5 21 -8 43 -6z m178 -16 c4 -14 0 -15 -22 -6 -9 3
-16 10 -16 14 0 12 33 5 38 -8z m-762 -143 c2 -4 -50 -7 -116 -7 -66 1 -115 5
-108 9 16 10 217 8 224 -2z"/>
<path d="M2100 998 c0 -3 -3 -13 -6 -22 -4 -11 0 -16 11 -16 10 0 33 -12 52
-26 47 -36 50 -26 7 24 l-36 42 27 0 c32 0 138 -35 174 -58 14 -9 36 -27 49
-39 18 -18 34 -23 76 -23 38 0 61 -6 77 -19 22 -18 22 -19 5 -55 -10 -20 -20
-53 -23 -72 -6 -36 -35 -48 -47 -19 -3 8 -10 15 -15 15 -7 0 -6 -10 1 -27 7
-16 12 -29 13 -29 0 -1 14 -5 30 -8 30 -6 31 -5 43 41 7 26 22 66 32 88 17 34
27 43 64 53 48 12 65 38 47 69 -10 17 -10 16 -11 -2 0 -48 -45 -58 -110 -24
-22 12 -58 21 -80 21 -28 -1 -56 9 -97 34 -32 19 -82 42 -110 50 -51 15 -173
16 -173 2z"/>
<path d="M1483 955 c-37 -26 -48 -78 -28 -138 9 -29 22 -56 29 -60 8 -6 8 -10
-2 -14 -6 -2 -10 -9 -7 -13 3 -5 -6 -17 -20 -26 -20 -13 -24 -22 -19 -43 9
-37 24 -50 24 -21 0 13 14 38 31 56 26 27 30 36 24 68 -4 21 -13 36 -21 36 -8
0 -14 6 -14 13 0 8 7 14 15 14 8 0 15 -6 15 -13 0 -22 45 -27 79 -10 37 20 59
55 41 66 -8 5 -9 10 -2 14 6 3 13 -2 17 -13 8 -28 105 -69 105 -45 0 20 -46
64 -80 78 -59 24 -68 21 -81 -26 -17 -58 -20 -60 -56 -38 -43 26 -53 73 -22
106 26 28 8 34 -28 9z"/>
<path d="M1883 963 c4 -6 33 -11 65 -11 72 0 151 -32 190 -77 26 -29 36 -33
96 -37 42 -4 74 -12 84 -21 13 -14 13 -21 -6 -66 -12 -27 -22 -57 -22 -65 0
-22 -36 -20 -50 2 -8 13 -9 8 -4 -23 4 -22 7 -41 8 -41 0 -1 15 1 32 3 27 4
33 11 44 46 19 67 48 107 76 107 48 0 84 28 84 65 0 19 -1 19 -18 -2 -24 -32
-75 -41 -93 -16 -21 29 -54 44 -108 48 -29 2 -67 13 -92 28 -24 14 -62 33 -84
43 -47 19 -212 33 -202 17z"/>
<path d="M661 944 c0 -11 3 -14 6 -6 3 7 2 16 -1 19 -3 4 -6 -2 -5 -13z"/>
<path d="M2773 888 l-53 -10 0 -52 0 -53 48 7 c26 5 50 6 55 3 4 -2 7 23 7 56
0 34 -1 60 -2 60 -2 -1 -27 -6 -55 -11z m12 -36 c-15 -10 -38 -42 -32 -42 14
0 47 46 42 58 -3 8 0 12 7 9 7 -2 12 -13 10 -23 -1 -10 -3 -27 -4 -36 -1 -10
-7 -19 -13 -19 -43 -6 -56 -5 -60 2 -7 10 14 62 28 71 15 9 36 -10 22 -20z"/>
<path d="M90 855 c0 -8 4 -15 8 -15 5 0 9 7 9 15 0 8 -4 15 -9 15 -4 0 -8 -7
-8 -15z"/>
<path d="M980 860 c-13 -8 -13 -10 2 -10 9 0 20 5 23 10 8 13 -5 13 -25 0z"/>
<path d="M1875 860 c3 -5 8 -10 11 -10 2 0 4 5 4 10 0 6 -5 10 -11 10 -5 0 -7
-4 -4 -10z"/>
<path d="M2080 841 c0 -25 47 -62 86 -68 37 -5 42 -3 47 18 8 29 4 33 -21 20
-31 -17 -48 -13 -81 15 -17 14 -31 21 -31 15z"/>
<path d="M670 757 c0 -4 7 -23 15 -42 13 -33 12 -39 -15 -97 -16 -34 -26 -66
-23 -71 3 -5 10 -2 15 7 10 18 28 22 28 5 0 -5 -5 -7 -12 -3 -7 4 -8 3 -4 -4
11 -18 28 -14 25 6 -1 9 1 24 4 32 26 65 25 87 -4 131 -16 24 -29 40 -29 36z"/>
<path d="M2357 635 c-15 -19 -34 -35 -42 -35 -8 0 -15 -4 -15 -10 0 -5 4 -10
8 -10 4 0 16 -15 26 -32 10 -18 28 -41 40 -51 29 -24 101 -57 125 -57 24 0 90
-22 157 -52 27 -12 52 -21 57 -20 4 1 7 -4 7 -12 0 -7 9 -16 21 -19 12 -3 19
-10 16 -15 -4 -4 0 -20 7 -34 11 -22 11 -31 -5 -64 -24 -53 -95 -124 -124
-124 -5 0 -16 -9 -23 -20 -18 -30 -1 -24 67 21 111 74 149 168 93 234 -51 61
-136 102 -286 139 -88 21 -90 23 -99 56 -5 19 -7 59 -5 88 3 28 4 52 4 52 -1
0 -14 -16 -29 -35z"/>
<path d="M622 515 c-16 -35 -15 -43 2 -19 8 10 19 20 25 20 6 1 16 2 22 3 5 0
7 6 3 12 -4 8 -9 7 -15 -2 -6 -10 -9 -11 -9 -1 0 21 -16 13 -28 -13z"/>
<path d="M2177 505 c-4 -8 5 -13 26 -14 78 -3 76 -2 79 -35 l4 -31 12 28 c6
15 18 27 27 27 22 0 18 -13 -10 -38 -34 -30 -32 -49 7 -54 52 -8 67 0 62 34
-2 17 -11 37 -21 44 -17 13 -17 14 0 8 9 -3 17 -2 17 3 0 24 -195 52 -203 28z
m183 -83 c0 -11 -8 -18 -20 -19 -23 -2 -26 7 -8 25 17 17 28 15 28 -6z"/>
<path d="M143 423 c9 -2 23 -2 30 0 6 3 -1 5 -18 5 -16 0 -22 -2 -12 -5z"/>
<path d="M1210 399 c0 -25 2 -26 78 -33 203 -18 448 -49 552 -70 206 -41 280
-91 280 -186 0 -49 -1 -50 -29 -50 -33 0 -51 -18 -31 -30 15 -9 39 -2 59 18 9
8 28 12 47 10 31 -4 35 -1 54 39 46 99 15 170 -95 216 -91 37 -595 109 -659
93 -13 -3 -26 -2 -28 3 -2 5 -54 11 -116 13 l-112 3 0 -26z m293 -26 c-7 -2
-21 -2 -30 0 -10 3 -4 5 12 5 17 0 24 -2 18 -5z m62 -3 c3 -6 -1 -7 -9 -4 -18
7 -21 14 -7 14 6 0 13 -4 16 -10z m120 -1 c47 1 77 -7 70 -19 -5 -8 -34 -7
-105 5 -51 9 -60 11 -67 19 -4 5 8 5 27 1 19 -4 53 -7 75 -6z m119 -30 c-3 -5
-15 -9 -27 -8 -12 0 -16 3 -9 6 6 2 10 8 7 13 -3 4 4 6 15 3 11 -3 17 -9 14
-14z m80 4 c7 -7 15 -9 76 -18 73 -10 161 -31 155 -37 -3 -3 10 -9 30 -12 19
-4 33 -10 31 -15 -3 -4 4 -15 15 -24 10 -9 19 -27 19 -39 0 -42 -12 -98 -20
-93 -4 3 -10 -4 -13 -15 -13 -49 -37 -8 -37 63 0 23 -4 36 -10 32 -13 -8 -13
1 0 25 16 29 -20 61 -62 57 -18 -2 -37 0 -43 3 -16 12 -89 34 -99 31 -6 -1
-19 2 -30 8 -12 5 -34 12 -50 16 -23 5 -27 8 -15 16 17 10 43 12 53 2z m223
-103 c7 -10 9 -22 4 -24 -5 -3 -11 1 -15 9 -3 8 -11 15 -18 15 -9 0 -8 -3 2
-10 8 -5 10 -10 4 -10 -16 0 -23 10 -17 26 7 20 26 17 40 -6z"/>
<path d="M2151 204 c0 -11 3 -14 6 -6 3 7 2 16 -1 19 -3 4 -6 -2 -5 -13z"/>
<path d="M2150 124 c0 -8 5 -12 10 -9 6 4 8 11 5 16 -9 14 -15 11 -15 -7z"/>
<path d="M470 410 c25 -4 51 -4 58 0 8 4 -12 7 -45 7 l-58 1 45 -8z"/>
<path d="M550 413 c0 -4 48 -9 108 -10 59 -2 179 -7 267 -13 271 -16 260 -16
260 2 0 16 -29 18 -317 24 -175 3 -318 2 -318 -3z"/>
<path d="M103 383 c15 -2 39 -2 55 0 15 2 2 4 -28 4 -30 0 -43 -2 -27 -4z"/>
<path d="M210 383 c0 -6 59 -13 138 -16 205 -10 659 -51 804 -74 34 -5 36 -4
31 16 -3 11 -13 21 -23 21 -10 0 -138 9 -286 19 -148 11 -316 22 -374 25 -58
4 -147 9 -197 13 -59 3 -93 2 -93 -4z"/>
<path d="M1210 301 c0 -18 6 -21 38 -21 86 1 484 -73 581 -107 68 -24 151 -84
151 -109 0 -5 -160 -8 -385 -6 l-385 3 0 -31 c0 -34 19 -41 27 -10 5 17 8 18
21 8 9 -8 17 -9 19 -3 3 10 618 11 670 2 12 -2 20 -1 18 3 -8 12 43 33 65 27
20 -5 22 -3 16 24 -17 89 -100 129 -366 178 -141 26 -225 38 -407 57 -60 6
-63 5 -63 -15z m741 -151 c6 0 7 4 4 10 -3 6 1 7 9 4 9 -3 16 -10 16 -16 0 -5
5 -6 12 -2 7 5 8 2 3 -7 -23 -40 -28 -40 -52 -4 -13 19 -28 35 -34 35 -6 0 -7
5 -4 11 5 6 13 3 22 -10 8 -12 19 -21 24 -21z"/>
<path d="M1955 140 c-3 -5 1 -10 10 -10 9 0 13 5 10 10 -3 6 -8 10 -10 10 -2
0 -7 -4 -10 -10z"/>
<path d="M360 291 c0 -25 6 -27 13 -6 4 8 2 17 -3 20 -6 4 -10 -3 -10 -14z"/>
<path d="M210 205 c0 -69 3 -85 15 -85 10 0 15 10 15 30 0 28 2 30 40 30 29 0
40 4 40 15 0 11 -11 15 -40 15 -36 0 -40 3 -40 25 0 23 4 25 45 25 33 0 45 4
45 15 0 12 -13 15 -60 15 l-60 0 0 -85z"/>
<path d="M865 258 c-33 -39 -29 -81 12 -117 21 -19 34 -22 66 -18 47 6 66 22
49 39 -9 9 -15 9 -24 0 -30 -30 -88 -2 -88 42 0 43 59 73 88 44 9 -9 15 -9 25
1 18 18 -17 41 -64 41 -30 0 -43 -7 -64 -32z"/>
<path d="M1288 258 c-3 -7 -20 -13 -39 -13 l-34 0 -1 -65 c-1 -61 -1 -62 5
-15 6 48 7 50 36 50 27 0 30 -3 28 -31 -3 -38 25 -67 59 -62 28 4 27 22 -2 26
-16 3 -20 11 -20 38 0 28 4 34 21 34 12 0 19 5 17 13 -3 6 -11 12 -19 12 -8 0
-18 6 -22 13 -10 15 -24 16 -29 0z"/>
<path d="M1170 191 c0 -41 4 -71 10 -71 6 0 10 28 10 64 0 36 -4 68 -10 71 -6
4 -10 -20 -10 -64z"/>
<path d="M357 243 c-20 -19 -5 -31 33 -26 33 5 40 3 40 -11 0 -11 -9 -16 -29
-16 -41 0 -61 -9 -61 -29 0 -29 22 -41 72 -41 l48 0 0 55 c0 43 -4 56 -19 65
-22 11 -74 14 -84 3z m73 -83 c0 -6 -7 -13 -15 -16 -20 -8 -48 3 -40 16 8 13
55 13 55 0z"/>
<path d="M500 184 c0 -58 2 -64 21 -64 17 0 20 6 19 38 -3 57 -1 62 20 62 11
0 20 6 20 14 0 9 -13 13 -40 13 l-40 0 0 -63z"/>
<path d="M600 184 c0 -57 2 -64 20 -64 17 0 20 7 20 50 0 47 2 50 25 50 23 0
25 -3 25 -50 0 -43 3 -50 20 -50 17 0 20 7 20 50 0 47 2 50 25 50 23 0 25 -3
25 -50 0 -43 3 -50 20 -50 17 0 20 7 20 48 0 69 -38 100 -90 72 -11 -6 -21 -6
-24 -1 -3 5 -28 9 -56 9 l-50 0 0 -64z"/>
<path d="M1031 241 c-24 -16 -2 -29 39 -24 33 5 40 3 40 -11 0 -11 -9 -16 -29
-16 -42 0 -61 -9 -61 -30 0 -27 21 -38 73 -38 l47 0 0 53 c0 43 -4 56 -19 65
-24 12 -71 13 -90 1z m72 -87 c-6 -17 -44 -15 -51 4 -2 8 7 12 27 12 23 0 29
-4 24 -16z"/>
<path d="M928 223 c7 -3 16 -2 19 1 4 3 -2 6 -13 5 -11 0 -14 -3 -6 -6z"/>
<path d="M2010 192 c0 -4 9 -13 20 -19 16 -11 18 -10 14 1 -6 15 -34 30 -34
18z"/>
<path d="M1890 95 c0 -8 2 -15 4 -15 2 0 6 7 10 15 3 8 1 15 -4 15 -6 0 -10
-7 -10 -15z"/>
<path d="M88 93 c6 -2 18 -2 25 0 6 3 1 5 -13 5 -14 0 -19 -2 -12 -5z"/>
<path d="M136 91 c-3 -5 1 -11 9 -14 9 -4 12 -1 8 9 -6 16 -10 17 -17 5z"/>
<path d="M210 30 c0 -34 19 -41 27 -10 4 15 11 19 24 15 16 -5 558 -9 783 -5
37 1 71 -1 74 -4 3 -3 11 -1 18 5 9 7 14 5 19 -10 10 -31 25 -25 25 9 l0 30
-485 0 -485 0 0 -30z"/>
<path d="M2215 50 c-7 -11 4 -16 48 -23 15 -2 30 0 33 5 3 4 10 6 15 3 5 -3 6
1 3 9 -7 18 -89 23 -99 6z"/>
<path d="M2646 48 c5 -7 1 -9 -9 -5 -9 3 -19 3 -21 -2 -6 -10 3 -10 149 -9
157 1 156 1 152 13 -2 6 -57 11 -141 12 -98 1 -134 -1 -130 -9z"/>
</g>
</svg>
